<?xml version="1.0" encoding="utf-8"?>
<!-- Generator: Adobe Illustrator 16.0.3, SVG Export Plug-In . SVG Version: 6.00 Build 0)  -->
<!DOCTYPE svg PUBLIC "-//W3C//DTD SVG 1.1//EN" "http://www.w3.org/Graphics/SVG/1.1/DTD/svg11.dtd">
<svg version="1.1" id="Layer" xmlns="http://www.w3.org/2000/svg" xmlns:xlink="http://www.w3.org/1999/xlink" x="0px" y="0px"
	 width="1920px" height="1080px" viewBox="0 0 1920 1080" enable-background="new 0 0 1920 1080" xml:space="preserve">
<rect y="3" fill="#EC6B43" width="1920" height="1077"/>
<path fill="#FFFFFF" d="M960,252c-88.365,0-160,71.635-160,160c0,62.469,32,112,88.004,142.924C926.074,575.945,928,636,960,636
	s33.928-60.051,72-81.076c56-30.924,88-80.457,88-142.924C1120,323.635,1048.365,252,960,252z M960,452c-22.092,0-40-17.908-40-40
	s17.908-40,40-40s40,17.908,40,40S982.092,452,960,452z"/>
<g>
	<path fill="#FFFFFF" d="M808.371,677.719v52.98h-2.953v-36l0.141-14.449h-0.492c-1.828,5.109-3.609,9.855-5.344,14.238
		l-14.238,36.211h-3.832l-14.238-36.211c-1.898-4.852-3.68-9.598-5.344-14.238h-0.492l0.141,14.449v36h-2.883v-52.98h5.027
		l14.063,35.719c1.734,4.336,3.551,9.246,5.449,14.73h0.527c1.898-5.648,3.644-10.488,5.238-14.52l14.133-35.93H808.371z"/>
	<path fill="#FFFFFF" d="M826.16,681.902v4.816h-4.535v-4.816H826.16z M825.316,694.629v36.07h-2.813v-36.07H825.316z"/>
	<path fill="#FFFFFF" d="M860.859,701.977l-2.672,1.16c-1.641-4.617-4.829-6.926-9.563-6.926c-3.094,0-5.449,0.691-7.066,2.074
		c-1.383,1.172-2.074,2.742-2.074,4.711c0,2.25,0.668,3.902,2.004,4.957c1.218,0.938,3.352,1.723,6.398,2.355l2.742,0.598
		c4.406,0.938,7.43,2.227,9.07,3.867c1.5,1.5,2.25,3.668,2.25,6.504c0,3.141-1.195,5.648-3.586,7.523
		c-2.32,1.805-5.449,2.707-9.387,2.707c-3.352,0-6.246-0.832-8.684-2.496c-2.157-1.5-3.75-3.527-4.781-6.082l2.672-1.23
		c1.781,4.945,5.379,7.418,10.793,7.418c3.633,0,6.328-0.879,8.086-2.637c1.336-1.313,2.004-2.977,2.004-4.992
		c0-2.531-0.656-4.348-1.969-5.449c-1.289-1.078-3.656-1.98-7.102-2.707l-2.742-0.563c-4.242-0.891-7.149-2.203-8.719-3.938
		c-1.243-1.383-1.863-3.293-1.863-5.73c0-2.883,1.102-5.168,3.305-6.855c2.109-1.617,4.992-2.426,8.648-2.426
		C854.438,693.82,858.516,696.539,860.859,701.977z"/>
	<path fill="#FFFFFF" d="M894.926,701.977l-2.672,1.16c-1.641-4.617-4.829-6.926-9.563-6.926c-3.094,0-5.449,0.691-7.066,2.074
		c-1.383,1.172-2.074,2.742-2.074,4.711c0,2.25,0.668,3.902,2.004,4.957c1.218,0.938,3.352,1.723,6.398,2.355l2.742,0.598
		c4.406,0.938,7.43,2.227,9.07,3.867c1.5,1.5,2.25,3.668,2.25,6.504c0,3.141-1.195,5.648-3.586,7.523
		c-2.32,1.805-5.449,2.707-9.387,2.707c-3.352,0-6.246-0.832-8.684-2.496c-2.157-1.5-3.75-3.527-4.781-6.082l2.672-1.23
		c1.781,4.945,5.379,7.418,10.793,7.418c3.633,0,6.328-0.879,8.086-2.637c1.336-1.313,2.004-2.977,2.004-4.992
		c0-2.531-0.656-4.348-1.969-5.449c-1.289-1.078-3.656-1.98-7.102-2.707l-2.742-0.563c-4.242-0.891-7.149-2.203-8.719-3.938
		c-1.243-1.383-1.863-3.293-1.863-5.73c0-2.883,1.102-5.168,3.305-6.855c2.109-1.617,4.992-2.426,8.648-2.426
		C888.504,693.82,892.582,696.539,894.926,701.977z"/>
	<path fill="#FFFFFF" d="M932.156,694.629l-13.043,13.746l14.273,22.324h-3.445l-12.691-20.285l-7.77,8.191v12.094h-2.813v-53.93
		h2.813v38.742l19.09-20.883H932.156z"/>
	<path fill="#FFFFFF" d="M968.086,712.348h-26.121c0,5.695,1.348,10.055,4.043,13.078c2.156,2.414,4.839,3.621,8.051,3.621
		c3.07,0,5.507-0.738,7.313-2.215c1.57-1.289,2.824-3.234,3.762-5.836l2.672,1.301c-2.672,6.141-7.277,9.211-13.816,9.211
		c-4.641,0-8.344-1.91-11.109-5.73c-2.484-3.398-3.727-7.758-3.727-13.078c0-6.094,1.57-10.898,4.711-14.414
		c2.648-2.977,5.953-4.465,9.914-4.465c4.477,0,8.063,1.84,10.758,5.52c2.367,3.234,3.551,7.324,3.551,12.27V712.348z
		 M965.203,709.887c-0.398-4.641-1.758-8.168-4.078-10.582c-1.969-2.016-4.418-3.023-7.348-3.023c-3.352,0-6.117,1.359-8.297,4.078
		c-1.946,2.438-3.071,5.613-3.375,9.527H965.203z"/>
	<path fill="#FFFFFF" d="M1001.871,694.629l-13.605,38.039c-1.5,4.125-3.316,7.008-5.449,8.648
		c-1.734,1.336-3.902,2.004-6.504,2.004c-0.703,0-1.523-0.082-2.461-0.246l-0.281-2.637c1.078,0.305,2.016,0.457,2.813,0.457
		c2.414,0,4.359-0.762,5.836-2.285c1.383-1.406,2.648-3.703,3.797-6.891l0.738-1.793l-12.902-35.297h3.023l9.527,26.648
		c0.422,1.148,0.926,2.871,1.512,5.168h0.141c0.773-2.531,1.348-4.301,1.723-5.309l9.141-26.508H1001.871z"/>
	<path fill="#FFFFFF" d="M1073.273,692.273l-9.422,2.285c-1.383-7.875-5.297-11.813-11.742-11.813c-4.57,0-8.098,2.039-10.582,6.117
		c-2.297,3.75-3.445,8.859-3.445,15.328c0,7.359,1.488,12.949,4.465,16.77c2.461,3.141,5.648,4.711,9.563,4.711
		c6.656,0,10.758-3.984,12.305-11.953l9.176,2.813c-2.859,11.086-10.043,16.629-21.551,16.629c-7.875,0-14.004-2.848-18.387-8.543
		c-3.914-5.086-5.871-11.859-5.871-20.32c0-9.727,2.531-17.203,7.594-22.43c4.289-4.406,9.844-6.609,16.664-6.609
		c6.047,0,10.969,1.711,14.766,5.133C1070.039,683.32,1072.195,687.281,1073.273,692.273z"/>
	<path fill="#FFFFFF" d="M1097.25,691.746c5.766,0,10.277,2.074,13.535,6.223c2.883,3.68,4.324,8.473,4.324,14.379
		c0,6.82-1.852,12.129-5.555,15.926c-3.188,3.258-7.313,4.887-12.375,4.887c-5.813,0-10.336-2.074-13.57-6.223
		c-2.859-3.656-4.289-8.449-4.289-14.379c0-6.797,1.863-12.105,5.59-15.926C1088.121,693.375,1092.234,691.746,1097.25,691.746z
		 M1097.25,698.285c-5.766,0-8.648,4.711-8.648,14.133c0,9.469,2.859,14.203,8.578,14.203c5.766,0,8.648-4.734,8.648-14.203
		C1105.828,702.996,1102.969,698.285,1097.25,698.285z"/>
	<path fill="#FFFFFF" d="M1145.133,691.746l-0.598,8.508c-5.039,0-8.777,3.34-11.215,10.02v21.867h-8.93v-39.516h8.508v9.703
		C1135.453,695.273,1139.531,691.746,1145.133,691.746z"/>
	<path fill="#FFFFFF" d="M1185.809,714.352h-26.719c0.047,4.125,1.008,7.289,2.883,9.492c1.711,1.992,4.066,2.988,7.066,2.988
		c4.242,0,7.02-2.508,8.332-7.523l8.227,2.391c-2.484,7.641-8.039,11.461-16.664,11.461c-6.305,0-11.098-2.039-14.379-6.117
		c-2.883-3.563-4.324-8.367-4.324-14.414c0-6.844,1.875-12.164,5.625-15.961c3.211-3.281,7.313-4.922,12.305-4.922
		c5.578,0,9.984,2.027,13.219,6.082c2.953,3.68,4.43,8.566,4.43,14.66V714.352z M1176.949,708.375
		c-0.445-6.914-3.328-10.371-8.648-10.371c-2.883,0-5.121,1.055-6.715,3.164c-1.359,1.805-2.145,4.207-2.355,7.207H1176.949z"/>
</g>
<g>
</g>
<g>
</g>
<g>
</g>
<g>
</g>
<g>
</g>
<g>
</g>
</svg>
