<?xml version="1.0" encoding="utf-8"?>
<!-- Generator: Adobe Illustrator 16.0.3, SVG Export Plug-In . SVG Version: 6.00 Build 0)  -->
<!DOCTYPE svg PUBLIC "-//W3C//DTD SVG 1.1//EN" "http://www.w3.org/Graphics/SVG/1.1/DTD/svg11.dtd">
<svg version="1.1" id="レイヤー_1" xmlns="http://www.w3.org/2000/svg" xmlns:xlink="http://www.w3.org/1999/xlink" x="0px"
	 y="0px" width="500px" height="200px" viewBox="0 0 500 200" enable-background="new 0 0 500 200" xml:space="preserve">
<g id="レイヤー_1">
	<g>
		<g>
			<path fill="#3B3938" d="M115.744,42.966c-3.428,0-6.199,1.727-8.013,4.993L78.924,99.594L50.118,47.96
				c-1.815-3.267-4.586-4.994-8.014-4.994c-4.867,0-8.979,4.112-8.979,8.979v80.5c0,4.868,4.112,8.98,8.979,8.98
				c4.868,0,8.98-4.112,8.98-8.98V85.302l20.106,35.729c1.52,2.735,4.483,4.435,7.734,4.435c3.251,0,6.215-1.699,7.731-4.43
				l20.108-35.734v47.143c0,4.868,4.112,8.98,8.98,8.98s8.98-4.112,8.98-8.98v-80.5C124.724,47.079,120.612,42.966,115.744,42.966z"
				/>
		</g>
		<g>
			<path fill="#3B3938" d="M147.383,48.006c-6.516,0-9.96,3.541-9.96,10.24c0,6.149,3.723,9.82,9.96,9.82
				c6.324,0,10.1-3.671,10.1-9.82C157.483,51.451,154.085,48.006,147.383,48.006z"/>
		</g>
		<g>
			<path fill="#3B3938" d="M147.383,73.626c-4.72,0-8.56,3.84-8.56,8.56v50.679c0,4.721,3.84,8.561,8.56,8.561
				c4.72,0,8.56-3.84,8.56-8.561V82.186C155.943,77.466,152.103,73.626,147.383,73.626z"/>
		</g>
		<g>
			<path fill="#3B3938" d="M195.696,99.253c-6.157-1.915-11.474-3.568-11.474-6.987c0-3.759,4.549-4.32,7.26-4.32
				c5.374,0,8.949,2.061,12.011,4.289c1.676,1.219,3.134,2.151,5.349,2.151c4.185,0,7.72-3.535,7.72-7.72
				c0-2.466-0.725-3.633-1.619-4.825c-4.333-5.416-13.761-9.055-23.46-9.055c-14.81,0-24.38,7.756-24.38,19.76
				c0,14.819,12.485,18.659,22.517,21.744c6.322,1.944,11.783,3.623,11.783,7.516c0,3.803-5.09,4.601-9.36,4.601
				c-7.049,0-11.421-2.788-14.767-5.514c-1.589-1.301-3.169-1.906-4.973-1.906c-4.185,0-7.72,3.535-7.72,7.719
				c0,1.815,0.568,3.301,1.901,4.969c3.951,4.899,13.634,10.172,25.559,10.172c16.171,0,26.62-8.196,26.62-20.88
				C218.663,106.395,205.389,102.267,195.696,99.253z"/>
		</g>
		<g>
			<path fill="#3B3938" d="M255.194,99.253c-6.157-1.915-11.474-3.568-11.474-6.987c0-3.759,4.549-4.32,7.26-4.32
				c5.375,0,8.949,2.061,12.011,4.289c1.677,1.219,3.135,2.151,5.349,2.151c4.185,0,7.72-3.535,7.72-7.72
				c0-2.465-0.725-3.632-1.619-4.825c-4.333-5.416-13.761-9.055-23.46-9.055c-14.81,0-24.38,7.756-24.38,19.76
				c0,14.819,12.485,18.659,22.517,21.744c6.323,1.944,11.783,3.623,11.783,7.516c0,3.803-5.09,4.601-9.359,4.601
				c-7.049,0-11.421-2.788-14.767-5.514c-1.589-1.301-3.169-1.906-4.973-1.906c-4.185,0-7.72,3.535-7.72,7.719
				c0,1.815,0.568,3.301,1.901,4.969c3.951,4.899,13.634,10.172,25.559,10.172c16.171,0,26.619-8.196,26.619-20.88
				C278.16,106.395,264.887,102.267,255.194,99.253z"/>
		</g>
		<g>
			<path fill="#3B3938" d="M321.539,101.835l17.549-13.396c1.969-1.514,3.191-4.017,3.191-6.533c0-4.643-3.638-8.28-8.281-8.28
				c-2.042,0-3.638,0.587-5.516,2.033L304.76,94.27V46.906c0-4.643-3.76-8.28-8.561-8.28c-4.88,0-8.561,3.56-8.561,8.28v86.239
				c0,4.721,3.681,8.28,8.561,8.28c4.801,0,8.561-3.637,8.561-8.28v-19.672l3.288-2.569l20.252,27.182
				c1.615,2.154,3.987,3.34,6.679,3.34c4.643,0,8.279-3.637,8.279-8.28c0-1.783-0.582-3.488-1.743-5.085L321.539,101.835z"/>
		</g>
		<g>
			<path fill="#3B3938" d="M407.797,101.646c0-4.819-1.398-28.86-29-28.86c-19.854,0-31.24,12.56-31.24,34.46
				c0,22.818,11.238,34.879,32.5,34.879c13.691,0,21.239-6.101,23.205-7.952c1.726-1.533,2.715-3.694,2.715-5.927
				c0-4.18-3.4-7.58-7.58-7.58c-2.177,0-3.506,0.734-5.035,1.707c-2.913,1.942-7.059,4.173-13.305,4.173
				c-4.496,0-14.789-1.263-15.354-12.7h33.554C407.797,113.846,407.797,106.795,407.797,101.646z M378.797,87.666
				c8.366,0,11.642,6.026,11.988,11.58h-25.578C366.184,91.869,371.085,87.666,378.797,87.666z"/>
		</g>
		<g>
			<path fill="#3B3938" d="M464.336,73.626c-4.315,0-6.928,2.79-7.93,5.392l-14.471,36.57l-14.465-36.562
				c-1.006-2.611-3.618-5.4-7.934-5.4c-4.721,0-8.561,3.84-8.561,8.56c0,1.153,0.213,2.268,0.644,3.338l21.392,49.316
				c-4.731,11.678-8.658,17.605-16.695,17.605c-4.72,0-8.279,3.439-8.279,8s3.56,8,8.279,8c12.83,0,22.608-7.887,29.895-24.114
				l26.054-58.834c0.419-1.051,0.632-2.165,0.632-3.311C472.896,77.466,469.057,73.626,464.336,73.626z"/>
		</g>
	</g>
</g>
</svg>
